<?xml version="1.0" encoding="UTF-8" standalone="no"?>
<svg
   width="19.996517"
   height="20.01066"
   viewBox="0 0 19.996517 20.01066"
   fill="none"
   stroke="currentColor"
   stroke-width="2"
   stroke-linecap="round"
   stroke-linejoin="round"
   class="icon icon-tabler icons-tabler-outline icon-tabler-reload"
   version="1.1"
   id="svg3"
   sodipodi:docname="cell_cycle.svg"
   xml:space="preserve"
   inkscape:version="1.4.2 (f4327f4, 2025-05-13)"
   xmlns:inkscape="http://www.inkscape.org/namespaces/inkscape"
   xmlns:sodipodi="http://sodipodi.sourceforge.net/DTD/sodipodi-0.dtd"
   xmlns="http://www.w3.org/2000/svg"
   xmlns:svg="http://www.w3.org/2000/svg"><defs
     id="defs3" /><sodipodi:namedview
     id="namedview3"
     pagecolor="#ffffff"
     bordercolor="#000000"
     borderopacity="0.25"
     inkscape:showpageshadow="2"
     inkscape:pageopacity="0.0"
     inkscape:pagecheckerboard="0"
     inkscape:deskcolor="#d1d1d1"
     showgrid="false"
     inkscape:zoom="35.458333"
     inkscape:cx="11.985899"
     inkscape:cy="12"
     inkscape:window-width="1920"
     inkscape:window-height="1111"
     inkscape:window-x="1911"
     inkscape:window-y="-9"
     inkscape:window-maximized="1"
     inkscape:current-layer="svg3" /><g
     id="g20"><path
       d="M 18.809256,11.173953 A 8.9016808,8.9016808 0 1 1 7.7656081,1.3954567 C 12.104065,0.28274656 16.594963,2.5159557 18.252901,6.6774915"
       id="path2"
       style="stroke-width:2.22542;fill:none;fill-opacity:1;stroke:#0d2b6f;stroke-opacity:1" /><path
       d="m 18.883807,1.113941 v 5.5635505 h -5.56355"
       id="path3"
       style="stroke-width:2.22542;fill:none;fill-opacity:1;stroke:#0d2b6f;stroke-opacity:1" /></g><g
     id="g19"
     transform="matrix(1.0684311,0,0,1.0684311,0.097406,-0.63753279)"><path
       d="m 8.8960027,4.3273121 0.2969975,0.4604993 c 0.9909308,1.5465638 1.0151778,3.2725434 0.073958,5.1778054 -0.9415167,1.9048012 0.9422308,-1.9117825 -4.74e-4,-0.00882 -0.9415167,1.9048012 -0.9178941,3.6318352 0.073958,5.1778052 l 0.2969976,0.460499"
       id="path2-5"
       sodipodi:nodetypes="cccccc"
       style="fill:none;stroke:#2dc4b5;stroke-width:1.09593;stroke-linecap:round;stroke-linejoin:round;stroke-opacity:1" /><path
       d="M 14.246116,12.622747 13.949119,12.162248 C 12.948978,10.621624 11.386664,9.8876161 9.2627999,9.9591698 7.139233,10.031184 11.393021,9.8893846 9.2706419,9.9632408 7.146778,10.034794 5.5835427,9.3013806 4.5843229,7.7601628 L 4.2873254,7.2996635"
       id="path3-1"
       sodipodi:nodetypes="cccccc"
       style="fill:none;stroke:#2dc4b5;stroke-width:1.09593;stroke-linecap:round;stroke-linejoin:round;stroke-opacity:1" /><g
       id="g5"
       style="fill:none;stroke:#2dc4b5;stroke-width:2;stroke-linecap:round;stroke-linejoin:round;stroke-opacity:1"
       transform="matrix(0.46049933,-0.29699754,0.29699754,0.46049933,0.17652146,7.9947723)"><path
         d="M 7,4 H 17"
         id="path4"
         style="stroke:#2dc4b5;stroke-opacity:1" /><path
         d="M 7,20 H 17"
         id="path5"
         sodipodi:nodetypes="cc"
         style="stroke:#2dc4b5;stroke-opacity:1" /><path
         d="m 8,8 h 8"
         id="path6"
         style="stroke:#2dc4b5;stroke-opacity:1" /><path
         d="m 8,16 h 8"
         id="path7"
         style="stroke:#2dc4b5;stroke-opacity:1" /></g></g></svg>
