<?xml version="1.0" encoding="UTF-8" standalone="no"?>
<svg
   width="18.642363"
   height="14.75"
   viewBox="0 0 18.642363 14.75"
   fill="none"
   stroke="currentColor"
   stroke-width="1.75"
   stroke-linecap="round"
   stroke-linejoin="round"
   version="1.1"
   id="svg6"
   sodipodi:docname="function_icon.svg"
   inkscape:version="1.4.2 (f4327f4, 2025-05-13)"
   xmlns:inkscape="http://www.inkscape.org/namespaces/inkscape"
   xmlns:sodipodi="http://sodipodi.sourceforge.net/DTD/sodipodi-0.dtd"
   xmlns="http://www.w3.org/2000/svg"
   xmlns:svg="http://www.w3.org/2000/svg">
  <defs
     id="defs6" />
  <sodipodi:namedview
     id="namedview6"
     pagecolor="#ffffff"
     bordercolor="#000000"
     borderopacity="0.25"
     inkscape:showpageshadow="2"
     inkscape:pageopacity="0.0"
     inkscape:pagecheckerboard="0"
     inkscape:deskcolor="#d1d1d1"
     inkscape:zoom="35.458333"
     inkscape:cx="8.3760282"
     inkscape:cy="7.3748531"
     inkscape:window-width="1920"
     inkscape:window-height="1111"
     inkscape:window-x="1911"
     inkscape:window-y="-9"
     inkscape:window-maximized="1"
     inkscape:current-layer="svg6" />
  <!-- f -->
  <!-- ( -->
  <!-- x -->
  <!-- ) -->
  <g
     id="g8"
     transform="translate(-3.5967979,-5.125)">
    <path
       d="m 4.5,19 c 1.4,0 2.1,-1.2 2.4,-3 L 8.1,9 C 8.4,7 9.2,6 10.6,6"
       id="path1"
       style="stroke:#2dc4b5;stroke-opacity:1" />
    <path
       d="m 5.8,11 h 4.5"
       id="path2"
       style="stroke:#2dc4b5;stroke-opacity:1" />
  </g>
  <g
     id="g7"
     transform="translate(-4.1326382,-2.625)">
    <path
       d="m 14.430666,7.5 c -1.1,1.2 -1.7,2.7 -1.7,4.5 0,1.8 0.6,3.3 1.7,4.5"
       id="path3" />
    <g
       id="g6"
       transform="translate(0.465333)">
      <path
         d="m 15.3,10 3.1,4"
         id="path4" />
      <path
         d="m 18.4,10 -3.1,4"
         id="path5" />
    </g>
    <path
       d="m 20.2,7.5 c 1.1,1.2 1.7,2.7 1.7,4.5 0,1.8 -0.6,3.3 -1.7,4.5"
       id="path6" />
  </g>
  <path
     d="m 10.269826,4.875 c -1.1000003,1.2 -1.7000003,2.7 -1.7000003,4.5 0,1.8 0.6,3.3 1.7000003,4.5"
     id="path11"
     style="stroke:#0d2b6f;stroke-opacity:1" />
  <g
     id="g13"
     transform="translate(-3.6955073,-2.625)"
     style="stroke:#0d2b6f;stroke-opacity:1">
    <path
       d="m 15.3,10 3.1,4"
       id="path12"
       style="stroke:#0d2b6f;stroke-opacity:1" />
    <path
       d="m 18.4,10 -3.1,4"
       id="path13"
       style="stroke:#0d2b6f;stroke-opacity:1" />
  </g>
  <path
     d="m 16.03916,4.875 c 1.1,1.2 1.7,2.7 1.7,4.5 0,1.8 -0.6,3.3 -1.7,4.5"
     id="path14"
     style="stroke:#0d2b6f;stroke-opacity:1" />
</svg>
