<?xml version="1.0" encoding="UTF-8" standalone="no"?>
<svg
   width="730.71918"
   height="680.81287"
   viewBox="0 0 730.71918 680.81287"
   version="1.1"
   id="svg7"
   xmlns="http://www.w3.org/2000/svg"
   xmlns:svg="http://www.w3.org/2000/svg">
  <defs
     id="defs7" />
  <g
     id="g8"
     transform="translate(-153.45843,-190.26588)">
    <path
       fill="#0d2b6f"
       d="m 296.81198,191.1048 c 1.08805,-0.12629 2.93313,-0.18616 4.02618,-0.19458 12.21655,-0.087 24.50811,0.044 36.72666,0.0683 l 69.06212,0.015 207.21635,0.072 84.88183,-0.0159 c 19.50888,-0.058 46.27309,-1.11038 64.98893,2.16745 27.73326,4.65109 53.40241,16.79891 73.83634,34.94486 30.05135,26.64644 45.51805,61.11609 45.79806,99.74851 0.22401,30.94672 0.17101,61.89532 0.18501,92.84298 l -0.015,183.49793 -0.054,89.08338 c 0.009,19.82884 1.07605,49.78773 -2.95413,68.52676 -5.70126,25.35925 -18.87386,48.72037 -38.02872,67.44163 -28.36228,27.68947 -64.1329,40.35741 -104.67073,41.20025 -11.37751,-0.72685 -28.40228,-0.23948 -40.0688,-0.22544 l -73.53032,0.0262 -231.43245,0.0225 h -65.06694 c -18.01381,-0.0187 -39.79479,0.48457 -57.32358,-2.61927 -25.35415,-4.59122 -48.92921,-15.45746 -68.26908,-31.46684 -28.48529,-23.34522 -45.63506,-56.49587 -47.53215,-91.87665 -0.73303,-12.40227 -0.38802,-25.81202 -0.33201,-38.27695 l -0.009,-49.13665 0.01,-175.7561 -0.009,-108.06845 c -0.036,-21.21986 -1.23405,-53.12169 2.50712,-73.07681 4.61721,-23.55757 16.07972,-45.47154 33.13249,-63.33686 22.37801,-23.51734 52.77139,-39.06179 86.01489,-43.99164 7.04831,-1.029 13.80662,-1.27971 20.90994,-1.61553 z m 437.37674,648.90926 c 36.59465,-1.63704 60.64274,-7.5987 86.94793,-33.55383 35.29759,-34.82887 29.78634,-77.538 29.75434,-121.89073 l -0.056,-103.73916 -0.13401,-170.35385 c -0.003,-28.42941 0.72503,-56.46033 -0.025,-85.17786 -1.27606,-48.90278 -38.88876,-93.12174 -90.96311,-102.07498 -19.55788,-3.06081 -44.54001,-1.90459 -64.80192,-1.88495 l -94.69928,-0.0514 -193.65774,0.0627 c -34.19154,0.003 -69.56214,-0.36951 -103.69668,0.18615 -8.76939,0.20113 -16.01172,0.42657 -24.76612,1.68102 -22.70002,3.25257 -45.73106,15.36859 -61.48477,30.92895 -14.77667,14.36485 -24.62911,32.53045 -28.29528,52.16846 -3.22114,17.65016 -1.98509,43.29473 -1.93308,61.83732 l 0.041,93.62408 0.032,182.36416 -0.038,60.30317 c -0.007,11.10385 -0.031,22.24886 0.103,33.30314 0.61703,50.61186 40.11581,93.62127 93.78223,100.91315 18.63385,2.53134 40.05681,1.49579 59.07967,1.46398 l 95.82033,-0.0168 192.8067,0.0299 68.10907,0.0178 c 12.19755,0.002 26.02118,0.30683 38.07472,-0.14032 z"
       id="path1"
       style="stroke:#072c67;stroke-width:1.15;stroke-dasharray:none;stroke-opacity:1" />
    <g
       id="g7"
       transform="translate(-0.46468989,18.72104)">
      <path
         fill="#0d2b6f"
         d="m 701.566,267.66373 c 36.782,-3.986 69.787,22.709 73.58,59.511 3.793,36.802 -23.074,69.667 -59.895,73.268 -36.55,3.574 -69.121,-23.052 -72.886,-59.583 -3.765,-36.531 22.69,-69.24 59.201,-73.196 z m 10.692,101.414 c 19.567,-1.778 33.937,-19.157 32.006,-38.709 -1.93,-19.551 -19.421,-33.785 -38.957,-31.702 -19.321,2.06 -33.364,19.317 -31.455,38.654 1.909,19.336 19.056,33.514 38.406,31.757 z"
         id="path2"
         style="stroke:#072c67;stroke-opacity:1" />
      <path
         fill="#0d2b6f"
         d="m 701.02103,624.006 c 36.491,-4.271 69.538,21.844 73.818,58.334 4.28,36.49 -21.827,69.543 -58.316,73.832 -36.502,4.291 -69.569,-21.827 -73.851,-58.33 -4.281,-36.503 21.845,-69.564 58.349,-73.836 z m 11.953,101.058 c 19.519,-2.262 33.492,-19.942 31.182,-39.455 -2.309,-19.513 -20.023,-33.443 -39.531,-31.085 -19.439,2.349 -33.31,19.988 -31.009,39.434 2.302,19.445 19.907,33.359 39.358,31.106 z"
         id="path3"
         style="stroke:#072c67;stroke-opacity:1" />
      <path
         fill="#0d2b6f"
         d="m 272.78171,317.684 181.657,0.124 59.161,-0.034 c 11.576,-0.003 23.418,-0.093 34.983,0.355 3.044,0.328 7.05,0.296 9.394,2.673 11.648,11.812 6.393,27.599 -9.891,29.162 -57.789,0.394 -115.58,0.486 -173.369,0.277 l -64.161,-0.064 c -12.511,-0.019 -25.219,0.072 -37.718,-0.366 -3.045,-0.106 -6.459,-0.319 -8.992,-1.979 -4.012,-2.629 -6.58,-6.542 -7.491,-11.232 -0.867,-4.255 0.111,-8.678 2.692,-12.17 3.476,-4.779 8.313,-5.955 13.735,-6.746 z"
         id="path4"
         style="stroke:#072c67;stroke-opacity:1" />
      <path
         fill="#0d2b6f"
         d="m 269.53303,496.04495 c 22.818,-0.334 279.967,-1.039 284.597,0.838 4.339,1.774 7.744,5.273 9.398,9.659 3.737,9.952 -3.035,18.232 -12.213,21.502 -8.437,0.8 -26.046,0.28 -35.346,0.28 l -69.162,-0.004 -112.58,-0.002 c -19.756,-0.003 -39.597,0.044 -59.353,-0.106 -2.982,-0.247 -8.141,-0.08 -10.756,-1.454 -8.119,-4.265 -10.83,-15.499 -5.968,-23.177 2.858,-4.513 6.319,-6.305 11.383,-7.536 z"
         id="path5"
         style="stroke:#072c67;stroke-opacity:1" />
      <path
         fill="#0d2b6f"
         d="m 269.03,674.184 c 9.253,-0.741 24.255,-0.197 33.938,-0.186 l 60.424,-0.112 109.949,0.095 c 20.991,10e-4 42.064,-0.449 63.014,-0.024 10.839,0.219 22.617,-1.713 26.799,10.644 3.524,10.416 -2.68,18.334 -12.414,21.355 -10.423,0.814 -27.34,0.284 -38.17,0.26 l -69.635,-0.071 -92.004,0.118 c -26.415,0.109 -52.817,0.336 -79.236,-0.419 -2.401,-0.118 -4.744,-0.035 -6.933,-1.18 -8.004,-4.19 -11.102,-15.813 -6.38,-23.479 2.359,-3.831 6.367,-5.891 10.648,-7.001 z"
         id="path6"
         style="stroke:#072c67;stroke-opacity:1" />
      <path
         fill="#2dc4b5"
         d="m 764.81076,459.4066 c 10.355,-0.891 17.612,5.706 18.014,16.033 0.237,6.069 -2.006,8.933 -5.992,13.067 -22.701,23.544 -46.113,46.399 -69.512,69.245 -1.619,1.581 -3.225,3.135 -5.008,4.521 -12.096,8.15 -22.959,-5.378 -30.942,-12.994 l -19.34,-18.443 c -6.611,-6.38 -16.7,-12.321 -17.332,-22.447 -0.545,-8.727 6.547,-17.024 15.485,-17.099 2.977,-0.004 5.902,0.786 8.472,2.289 5.53,3.266 11.231,9.71 16.02,14.174 6.433,5.995 12.903,12.055 19.129,18.26 2.849,-3.347 9.356,-9.489 12.689,-12.806 l 25.952,-25.797 c 8.395,-8.385 17.076,-17.819 25.835,-25.728 1.65,-1.49 4.371,-1.943 6.53,-2.275 z"
         id="path7"
         style="stroke:#01a5af;stroke-opacity:1" />
    </g>
  </g>
</svg>
